<?xml version="1.0" encoding="utf-8"?>
<!-- Generator: Adobe Illustrator 17.0.0, SVG Export Plug-In . SVG Version: 6.00 Build 0)  -->
<!DOCTYPE svg PUBLIC "-//W3C//DTD SVG 1.1//EN" "http://www.w3.org/Graphics/SVG/1.1/DTD/svg11.dtd">
<svg version="1.1" xmlns="http://www.w3.org/2000/svg" xmlns:xlink="http://www.w3.org/1999/xlink" x="0px" y="0px" width="1000px"
	 height="1000px" viewBox="0 0 1000 1000" enable-background="new 0 0 1000 1000" xml:space="preserve">
<g id="Guides">
</g>
<g id="Shapes">
	<path fill="#086AFF" d="M410,90c0,44.183-35.817,80-80,80s-44.183-160,0-160S410,45.817,410,90z"/>
	<circle fill="#086AFF" cx="80" cy="90" r="80"/>
	<path fill="#086AFF" d="M340,720c0,44.183-35.817,80-80,80s-80-35.817-80-80s35.817-60,80-60c21.541,0,80,0,80,0
		S340,697.358,340,720z"/>
	<circle fill="#086AFF" cx="80" cy="720" r="80"/>
	<rect y="90" fill="#086AFF" width="145" height="630"/>
	<rect x="280" y="466.5" fill="#086AFF" width="130" height="253.5"/>
	<rect x="280" y="90" fill="#086AFF" width="130" height="170"/>
	<rect x="80" y="10" fill="#086AFF" width="250" height="140"/>
	<rect x="80" y="660" fill="#086AFF" width="180" height="140"/>
	<rect x="210" y="400" fill="#086AFF" width="200" height="130"/>
	<path fill="#086AFF" d="M405.903,718.519H323.5c0,45.001,36.48,81.481,81.481,81.481c0.309,0,2.019,0,2.019,0v-81.481H405.903z"/>
	<path fill="#086AFF" d="M453.951,791.082c-0.414-0.305-0.889-0.442-1.376-0.705C426.952,776.648,410,751.104,410,720l-4-1.481V800
		c0,0,45.433,0,45.992,0c2.286-0.46,4.008-2.478,4.008-4.9C456,793.447,455.188,791.993,453.951,791.082z"/>
	<path fill="#086AFF" d="M280.009,650.99c-0.466,4.759-4.25,8.544-9.009,9.01h9.009V650.99z"/>
</g>
</svg>
