<svg xmlns="http://www.w3.org/2000/svg" width="1329" height="1400" viewBox="0 0 1329 1400">
  <title>OE</title>
  <g id="Layer_2" data-name="Layer 2">
    <g id="Letters">
      <path id="OE" d="M867,820h380V580H867V230h460.83984V0H617V41.95117A144.53346,144.53346,0,0,0,515,0H145A145.00031,145.00031,0,0,0,0,145V1255a145.00031,145.00031,0,0,0,145,145H515a144.53346,144.53346,0,0,0,102-41.95117V1400h712V1160H867ZM617,1087c0,35-27,63-62,63H312c-35,0-62-28-62-63V313c0-35,27-63,62-63H555c35,0,62,28,62,63Z" style="fill: #7f7f7f"/>
    </g>
  </g>
</svg>
