<svg xmlns="http://www.w3.org/2000/svg" width="730" height="1400" viewBox="0 0 730 1400">
  <title>sharp s</title>
  <g id="Layer_2" data-name="Layer 2">
    <g id="Letters">
      <path id="sharp_s" data-name="sharp s" d="M570.05029,0,570,.001V0H160V.001A160.0348,160.0348,0,0,0,.00049,160H0V1400H220V293a62.738,62.738,0,0,1,63-63H438c35,0,62,28,62,63V517c0,35-27,63-62,63H330V800H438c35,0,62,28,62,63v393a142.01237,142.01237,0,0,1-75,126c-3.2002,2-8,4-8,10s3,8,8.2002,8H586a143.90938,143.90938,0,0,0,144-144V840A159.879,159.879,0,0,0,625.68848,689.85449C686.481,667.10645,730,608.58691,730,540V160h-.00049C729.97217,71.61914,658.33643,0,570.05029,0Z" style="fill: #7f7f7f"/>
    </g>
  </g>
</svg>
