<svg xmlns="http://www.w3.org/2000/svg" width="730" height="1400" viewBox="0 0 730 1400">
  <title>9</title>
  <g id="Layer_2" data-name="Layer 2">
    <g id="Letters">
      <path id="_9" data-name="9" d="M570,0H160A160.00011,160.00011,0,0,0,0,160V660A160.00042,160.00042,0,0,0,160,820H380c50.43164,0,94.80078-25.6001,120-64.74121V1117c0,35-27,63-62,63H293a62.738,62.738,0,0,1-63-63v-97H0v220a159.99343,159.99343,0,0,0,160,159.99951V1400H570v-.00049l.0498.00049A159.9726,159.9726,0,0,0,730,1240V160A160.00011,160.00011,0,0,0,570,0ZM293,600a62.738,62.738,0,0,1-63-63V283a62.738,62.738,0,0,1,63-63H438c35,0,62,28,62,63V537c0,35-27,63-62,63Z" style="fill: #7f7f7f"/>
    </g>
  </g>
</svg>
