<svg xmlns="http://www.w3.org/2000/svg" width="740" height="1400" viewBox="0 0 740 1400">
  <title>S</title>
  <g id="Layer_2" data-name="Layer 2">
    <g id="Letters">
      <path id="S" d="M150,1400H590a150.055,150.055,0,0,0,150-150V730A150.05482,150.05482,0,0,0,590,580H261a20.5061,20.5061,0,0,1-21-21V261a20.5061,20.5061,0,0,1,21-21H479a20.5061,20.5061,0,0,1,21,21V420H740V150A150.05482,150.05482,0,0,0,590,0H150A150.05466,150.05466,0,0,0,0,150V669H.00391c-.00025.10034-.00391.19971-.00391.30005C0,752.1001,67.2002,820,150,820H479a20.5061,20.5061,0,0,1,21,21v298a20.5061,20.5061,0,0,1-21,21H261a20.5061,20.5061,0,0,1-21-21V937.5H0V1250A150.055,150.055,0,0,0,150,1400Z" style="fill: #7f7f7f"/>
    </g>
  </g>
</svg>
