<svg xmlns="http://www.w3.org/2000/svg" width="730" height="1400" viewBox="0 0 730 1400">
  <title>0</title>
  <g id="Layer_2" data-name="Layer 2">
    <g id="Letters">
      <path id="_0" data-name="0" d="M730,1250V150A149.99993,149.99993,0,0,0,580,0H150A150,150,0,0,0,0,150V1250a150,150,0,0,0,150,150H580A149.99993,149.99993,0,0,0,730,1250ZM240,1097V303a62.738,62.738,0,0,1,63-63H427a62.738,62.738,0,0,1,63,63v794a62.738,62.738,0,0,1-63,63H303A62.738,62.738,0,0,1,240,1097Z" style="fill: #7f7f7f"/>
    </g>
  </g>
</svg>
