<svg xmlns="http://www.w3.org/2000/svg" width="730" height="1400" viewBox="0 0 730 1400">
  <title>3</title>
  <g id="Layer_2" data-name="Layer 2">
    <g id="Letters">
      <path id="_3" data-name="3" d="M160,1400H570a160.00026,160.00026,0,0,0,160-160V840h-.00049A160.08818,160.08818,0,0,0,626.022,690.105,159.9796,159.9796,0,0,0,730,540.207c0-.06933-.00244-.13769-.00269-.207H730V160h-.00049C729.97217,71.61914,658.33643,0,570.05029,0L570,.00049V0H160V.00049A160.03585,160.03585,0,0,0,.00049,160H0V380H220V293a62.738,62.738,0,0,1,63-63H438c35,0,62,28,62,63V517c0,35-27,63-62,63H280V800H438c35,0,62,28,62,63v234c0,35-27,63-62,63H293a62.738,62.738,0,0,1-63-63V990H0v250A160.00026,160.00026,0,0,0,160,1400Z" style="fill: #7f7f7f"/>
    </g>
  </g>
</svg>
