<svg xmlns="http://www.w3.org/2000/svg" width="730" height="1400" viewBox="0 0 730 1400">
  <title>6</title>
  <g id="Layer_2" data-name="Layer 2">
    <g id="Letters">
      <path id="_6" data-name="6" d="M730,380V160h-.00049A160.03585,160.03585,0,0,0,570,.00049V0H160V.00049L159.94971,0C71.66357,0,.02783,71.61914.00049,160H0V1240a160.00042,160.00042,0,0,0,160,160H570a160.00042,160.00042,0,0,0,160-160V740A160.00011,160.00011,0,0,0,570,580H292c-35,0-62-28-62-63V293c0-35,27-63,62-63H437a62.738,62.738,0,0,1,63,63v87ZM437,800a62.738,62.738,0,0,1,63,63v234a62.738,62.738,0,0,1-63,63H292c-35,0-62-28-62-63V863c0-35,27-63,62-63Z" style="fill: #7f7f7f"/>
    </g>
  </g>
</svg>
