<svg xmlns="http://www.w3.org/2000/svg" width="730" height="1400" viewBox="0 0 730 1400">
  <title>8</title>
  <g id="Layer_2" data-name="Layer 2">
    <g id="Letters">
      <path id="_8" data-name="8" d="M730,540V160A160.01542,160.01542,0,0,0,570,0H160A159.95074,159.95074,0,0,0,0,160V540A160.27393,160.27393,0,0,0,104.00391,690.08838,160.01718,160.01718,0,0,0,0,840v400a160.00042,160.00042,0,0,0,160,160H570a160.00042,160.00042,0,0,0,160-160V840A160.01779,160.01779,0,0,0,625.81543,690.02,160.05184,160.05184,0,0,0,730,540ZM230,517V283a62.738,62.738,0,0,1,63-63H438c35,0,62,28,62,63V517c0,35-27,63-62,63H292C257,580,230,552,230,517Zm0,590V863c0-35,27-63,62-63H438c35,0,62,28,62,63v244c0,35-27,63-62,63H293A62.738,62.738,0,0,1,230,1107Z" style="fill: #7f7f7f"/>
    </g>
  </g>
</svg>
