<svg xmlns="http://www.w3.org/2000/svg" width="812.2002" height="1400.1001" viewBox="0 0 812.2002 1400.1001">
  <title>G</title>
  <g id="Layer_2" data-name="Layer 2">
    <g id="Letters">
      <path id="G" d="M145,1400v.1001S426.37793,1400,436,1400c78.2998,0,142-61.69995,142-140v-8h2.0249c1.04737,81.87817,66.22754,148,146.375,148H804c5.2002,0,8.2002-2,8.2002-8s-5-8-8.2002-10c-44.7998-24-74-71-74-126V700H380V930H500v159a62.738,62.738,0,0,1-63,63H250V248.1001H500V445H730V145A144.97592,144.97592,0,0,0,585,0H145A145.00031,145.00031,0,0,0,0,145V1255A145.00015,145.00015,0,0,0,145,1400Z" style="fill: #7f7f7f"/>
    </g>
  </g>
</svg>
