<svg xmlns="http://www.w3.org/2000/svg" width="763" height="1400" viewBox="0 0 763 1400">
  <title>R</title>
  <g id="Layer_2" data-name="Layer 2">
    <g id="Letters">
      <path id="R" d="M250,880H440v376a143.90907,143.90907,0,0,0,144,144H754.80005C760,1400,763,1398,763,1392s-4.80005-8-8-10a142.01189,142.01189,0,0,1-75-126V895a144.82985,144.82985,0,0,0-63.57275-120A144.82985,144.82985,0,0,0,680,655V145A144.97592,144.97592,0,0,0,535,0H0V1400H250Zm0-630H440V660H250Z" style="fill: #7f7f7f"/>
    </g>
  </g>
</svg>
