<svg xmlns="http://www.w3.org/2000/svg" width="1220" height="1280" viewBox="0 0 1220 1280">
  <title>Asset 140</title>
  <g id="Layer_2" data-name="Layer 2">
    <g id="Basic_Latin" data-name="Basic Latin">
      <path d="M1070,1280V1120H400c-135,0-240-105-240-240V400c0-135,105-240,240-240H820c135,0,240,105,240,240V753.16162C1053.15479,780.23438,1029.4043,800,1000,800H963a62.738,62.738,0,0,1-63-63V320H740v66.71875A159.786,159.786,0,0,0,610,320H480A160.00011,160.00011,0,0,0,320,480V800A160.00011,160.00011,0,0,0,480,960H620a159.948,159.948,0,0,0,140-82.5022A159.948,159.948,0,0,0,900,960h160a160.00011,160.00011,0,0,0,160-160V390l-.11914-.02979C1214.76758,169.821,1041.64551,0,820,0H400C175,0,0,175,0,400V880c0,225,175,400,400,400ZM543,800a62.738,62.738,0,0,1-63-63V543a62.738,62.738,0,0,1,63-63H678c35,0,62,28,62,63V737c0,35-27,63-62,63Z" style="fill: #7f7f7f"/>
    </g>
  </g>
</svg>
