<svg xmlns="http://www.w3.org/2000/svg" width="620" height="1760" viewBox="0 0 620 1760">
  <title>Asset 146</title>
  <g id="Layer_2" data-name="Layer 2">
    <g id="Basic_Latin" data-name="Basic Latin">
      <path d="M0,955H28c35,0,62,28,62,63v292c0,246.77686,203.4248,450,450,450h80V1580H540c-81.28516,0-220-55.89062-220-210V1030h-.001A160.08656,160.08656,0,0,0,216.02148,880.105,159.97954,159.97954,0,0,0,320,730.20679c0-.06909-.00293-.1377-.00293-.20679H320V390c0-154.10962,138.71484-210,220-210h80V0H540C293.4248,0,90,203.22314,90,450V742c0,35-27,63-62,63H0Z" style="fill: #7f7f7f"/>
    </g>
  </g>
</svg>
