<svg xmlns="http://www.w3.org/2000/svg" width="822.64844" height="1599.38525" viewBox="0 0 822.64844 1599.38525">
  <title>Asset 151</title>
  <g id="Layer_2" data-name="Layer 2">
    <g id="Basic_Latin" data-name="Basic Latin">
      <g>
        <polygon points="760.846 181.288 523.081 258.542 507.705 267.344 511.324 250 511.324 0 311.324 0 311.324 250 314.943 267.344 299.567 258.542 61.804 181.288 0 371.499 237.764 448.753 255.377 450.67 242.255 462.574 95.309 664.828 257.112 782.385 404.059 580.131 411.324 563.972 418.591 580.131 565.537 782.385 727.34 664.828 580.394 462.574 567.271 450.67 584.885 448.753 822.648 371.499 760.846 181.288" style="fill: #7f7f7f"/>
        <polygon points="760.846 998.288 523.081 1075.542 507.705 1084.344 511.324 1067 511.324 817 311.324 817 311.324 1067 314.943 1084.344 299.567 1075.542 61.804 998.288 0 1188.499 237.764 1265.753 255.377 1267.67 242.255 1279.574 95.309 1481.828 257.112 1599.385 404.059 1397.131 411.324 1380.972 418.591 1397.131 565.537 1599.385 727.34 1481.828 580.394 1279.574 567.271 1267.67 584.885 1265.753 822.648 1188.499 760.846 998.288" style="fill: #7f7f7f"/>
      </g>
    </g>
  </g>
</svg>
