<svg xmlns="http://www.w3.org/2000/svg" width="700" height="1600" viewBox="0 0 700 1600">
  <title>Asset 121</title>
  <g id="Layer_2" data-name="Layer 2">
    <g id="Basic_Latin" data-name="Basic Latin">
      <path d="M135,1400H250v200H450V1400H565a135.00012,135.00012,0,0,0,135-135V805A135,135,0,0,0,565,670H251a20.5061,20.5061,0,0,1-21-21V451a20.5061,20.5061,0,0,1,21-21H449a20.5061,20.5061,0,0,1,21,21v94H700V335A135,135,0,0,0,565,200H450V0H250V200H135A135,135,0,0,0,0,335V765A135.00012,135.00012,0,0,0,135,900H449a20.5061,20.5061,0,0,1,21,21v228a20.5061,20.5061,0,0,1-21,21H251a20.5061,20.5061,0,0,1-21-21v-94H0v210A135.00012,135.00012,0,0,0,135,1400Z" style="fill: #7f7f7f"/>
    </g>
  </g>
</svg>
