<svg xmlns="http://www.w3.org/2000/svg" width="730" height="1399" viewBox="0 0 730 1399">
  <title>Asset 159</title>
  <g id="Layer_2" data-name="Layer 2">
    <g id="Basic_Latin" data-name="Basic Latin">
      <path d="M574.95117,0C573.294,0,571.645.03516,570,.08691V0H160V.09033C158.32324.03662,156.6416,0,154.95117,0,69.42383,0,.02686,69.38086.00049,155H0V390l.00977.01318A155.06813,155.06813,0,0,0,87.36084,528.7793L7.11035,748.9541A105.08126,105.08126,0,0,0,82.00293,889.4668L510,1046.335V1126c0,35-27,63-62,63H273a62.738,62.738,0,0,1-63-63V1019H0v220H.36865A34.40706,34.40706,0,0,0,0,1243.95117,155.03539,155.03539,0,0,0,155.04883,1399c1.65722,0,3.30615-.03516,4.95117-.08691V1399H570v-.09033c1.67676.05371,3.3584.09033,5.04883.09033,85.52734,0,154.92431-69.38086,154.95068-155H730V1009l-.00977-.01318A155.06813,155.06813,0,0,0,642.63916,870.2207l80.25049-220.1748a105.08126,105.08126,0,0,0-74.89258-140.5127L220,352.665V273c0-35,27-63,62-63H457a62.738,62.738,0,0,1,63,63V380H730V160h-.36865A34.40706,34.40706,0,0,0,730,155.04883,155.03539,155.03539,0,0,0,574.95117,0Zm-103.373,727.07227L445.377,798.66748l-153.09961-54.6499a62.66747,62.66747,0,0,1-33.85546-72.08985l26.20117-71.59521,153.09961,54.6499A62.66749,62.66749,0,0,1,471.57813,727.07227Z" style="fill: #7f7f7f"/>
    </g>
  </g>
</svg>
