<svg xmlns="http://www.w3.org/2000/svg" width="1130" height="1280" viewBox="0 0 1130 1280">
  <title>Asset 160</title>
  <g id="Layer_2" data-name="Layer 2">
    <g id="Basic_Latin" data-name="Basic Latin">
      <g>
        <path d="M400,1280H730c225,0,400-175,400-400V390l-.11914-.02979C1124.76758,169.82129,951.64551,0,730,0H400C175,0,0,175,0,400V880C0,1105,175,1280,400,1280ZM160,400c0-135,105-240,240-240H730c135,0,240,105,240,240V880c0,135-105,240-240,240H400c-135,0-240-105-240-240Z" style="fill: #7f7f7f"/>
        <path d="M480,960H650A160.00011,160.00011,0,0,0,810,800V740H650v60H480V480H650v60H810V480A160.00011,160.00011,0,0,0,650,320H480A160.00011,160.00011,0,0,0,320,480V800A160.00011,160.00011,0,0,0,480,960Z" style="fill: #7f7f7f"/>
      </g>
    </g>
  </g>
</svg>
