<svg xmlns="http://www.w3.org/2000/svg" width="730" height="1400" viewBox="0 0 730 1400">
  <title>2</title>
  <g id="Layer_2" data-name="Layer 2">
    <g id="Letters">
      <path id="_2" data-name="2" d="M260,283a62.738,62.738,0,0,1,63-63H444c35,0,62,28,62,63V402.49951C506,593.69971,0,967.8999,0,1300v99.99951H.00024L0,1400H730V1160H289.56128C377.24658,919.17236,729.9126,640.40869,730,420V160h-.00049C729.97217,71.61914,658.33643,0,570.05029,0L570,.00049V0H180V.00049A160.03585,160.03585,0,0,0,20.00049,160H20V410H260Z" style="fill: #7f7f7f"/>
    </g>
  </g>
</svg>
