<svg xmlns="http://www.w3.org/2000/svg" width="730" height="1400" viewBox="0 0 730 1400">
  <title>5</title>
  <g id="Layer_2" data-name="Layer 2">
    <g id="Letters">
      <path id="_5" data-name="5" d="M730,1240V720h-.00049A160.03585,160.03585,0,0,0,570,560.00049V560H292c-35,0-62-28-62-63V230H720V0H0V630A160.00042,160.00042,0,0,0,160,790H438c35,0,62,28,62,63v244c0,35-27,63-62,63H293a62.738,62.738,0,0,1-63-63V990H0v250a160.00042,160.00042,0,0,0,160,160H570A160.00042,160.00042,0,0,0,730,1240Z" style="fill: #7f7f7f"/>
    </g>
  </g>
</svg>
