<svg xmlns="http://www.w3.org/2000/svg" width="620" height="1760" viewBox="0 0 620 1760">
  <title>Asset 148</title>
  <g id="Layer_2" data-name="Layer 2">
    <g id="Basic_Latin" data-name="Basic Latin">
      <path d="M0,0V180H80c81.28516,0,220,55.89038,220,210V730h.00293c0,.06909-.00293.1377-.00293.20679A159.97954,159.97954,0,0,0,403.97852,880.105,160.08656,160.08656,0,0,0,300.001,1030H300v340c0,154.10938-138.71484,210-220,210H0v180H80c246.5752,0,450-203.22314,450-450V1018c0-35,27-63,62-63h28V805H592c-35,0-62-28-62-63V450C530,203.22314,326.5752,0,80,0Z" style="fill: #7f7f7f"/>
    </g>
  </g>
</svg>
