<svg xmlns="http://www.w3.org/2000/svg" width="740" height="1400" viewBox="0 0 740 1400">
  <title>Asset 219</title>
  <g id="Layer_2" data-name="Layer 2">
    <g id="Basic_Latin" data-name="Basic Latin">
      <g>
        <rect x="260" y="1180" width="220" height="220" style="fill: #7f7f7f"/>
        <path d="M595,0H145A144.98223,144.98223,0,0,0,0,144.98926L.00024,145H0V360H200V253a62.738,62.738,0,0,1,63-63h7v850H470v-40c0-224,270-381.57031,270-650V145h-.00024L740,144.98926A145.04039,145.04039,0,0,0,595,0ZM540,360c0,82.57324-30.00183,155.87305-70,225.72266V190h8c35,0,62,28,62,63Z" style="fill: #7f7f7f"/>
      </g>
    </g>
  </g>
</svg>
