<svg xmlns="http://www.w3.org/2000/svg" width="643" height="640" viewBox="0 0 643 640">
  <title>Asset 161</title>
  <g id="Layer_2" data-name="Layer 2">
    <g id="Basic_Latin" data-name="Basic Latin">
      <path d="M420,0V66.71875A159.78672,159.78672,0,0,0,290,0H160A160.00042,160.00042,0,0,0,0,160V480A160.00042,160.00042,0,0,0,160,640H300a159.94783,159.94783,0,0,0,140-82.50244A159.94783,159.94783,0,0,0,580,640h63V480a62.738,62.738,0,0,1-63-63V0ZM223,480a62.738,62.738,0,0,1-63-63V223a62.738,62.738,0,0,1,63-63H358c35,0,62,28,62,63V417c0,35-27,63-62,63Z" style="fill: #7f7f7f"/>
    </g>
  </g>
</svg>
