<svg xmlns="http://www.w3.org/2000/svg" width="770" height="1400" viewBox="0 0 770 1400">
  <title>Asset 177</title>
  <g id="Layer_2" data-name="Layer 2">
    <g id="Basic_Latin" data-name="Basic Latin">
      <g>
        <path d="M770,1400V1290H581.55859C624.15527,1190.71973,769.96387,1082.11426,770,990V870h-.001a69.97773,69.97773,0,0,0-69.97754-70L700,800.00049V800H528v.00049A70.015,70.015,0,0,0,458.001,870H458V970H558V927a26.88774,26.88774,0,0,1,27-27h62a26.871,26.871,0,0,1,26.92188,25.03027C673.96,943.47461,674,964.41162,674,970c0,81.94336-224,237.67188-224,380v50H770Z" style="fill: #7f7f7f"/>
        <path d="M223,600V0H130S94.85742,52.85693,43,55V172c49.71387,0,77-27,77-27V600Z" style="fill: #7f7f7f"/>
        <polygon points="620 0 0 1400 150 1400 770 0 620 0" style="fill: #7f7f7f"/>
      </g>
    </g>
  </g>
</svg>
