<svg xmlns="http://www.w3.org/2000/svg" width="710" height="1400" viewBox="0 0 710 1400">
  <title>Asset 138</title>
  <g id="Layer_2" data-name="Layer 2">
    <g id="Basic_Latin" data-name="Basic Latin">
      <g>
        <path d="M0,159.98853.00024,160H0V400H230V273a62.738,62.738,0,0,1,63-63H427c35,0,62,28,62,63h.42163c-.175,36.1106-.32153,69.3457-.32153,79.27344C489.1001,543.55981,200,651,200,950v90H425V940c0-260.48145,285-320,285-588.42993V160h-.00024L710,159.98853A160.04488,160.04488,0,0,0,550,0H160A159.98062,159.98062,0,0,0,0,159.98853Z" style="fill: #7f7f7f"/>
        <rect x="200" y="1170" width="230" height="230" style="fill: #7f7f7f"/>
      </g>
    </g>
  </g>
</svg>
