<svg xmlns="http://www.w3.org/2000/svg" width="800" height="1400" viewBox="0 0 800 1400">
  <title>Asset 198</title>
  <g id="Layer_2" data-name="Layer 2">
    <g id="Basic_Latin" data-name="Basic Latin">
      <polygon points="800 500 800 300 570 300 479.462 320.538 500 230 500 0 300 0 300 230 320.538 320.538 230 300 0 300 0 500 230 500 316.853 480.298 300 680 300 720 316.853 919.702 230 900 0 900 0 1100 230 1100 320.538 1079.462 300 1170 300 1400 500 1400 500 1170 479.462 1079.462 570 1100 800 1100 800 900 570 900 483.147 919.702 500 720 500 680 483.147 480.298 570 500 800 500" style="fill: #7f7f7f"/>
    </g>
  </g>
</svg>
