<svg xmlns="http://www.w3.org/2000/svg" width="920" height="920" viewBox="0 0 920 920">
  <title>Asset 227</title>
  <g id="Layer_2" data-name="Layer 2">
    <g id="Basic_Latin" data-name="Basic Latin">
      <path d="M840,380s-80.23145-4.29883-120,0c-27.53223,2.97656-73.03809,11.94434-121.21191,22.51172,41.53613-26.5918,80.05566-52.42676,101.62793-69.791,31.16015-25.08105,84.85351-84.85254,84.85351-84.85254A80.00043,80.00043,0,1,0,672.13184,134.73047S612.36035,188.42383,587.2793,219.584c-17.36426,21.57227-43.19922,60.0918-69.791,101.62793C528.05566,273.03809,537.02344,227.53223,540,200c4.29883-39.76855,0-120,0-120a80,80,0,0,0-160,0s-4.29883,80.23145,0,120c2.97656,27.53223,11.94434,73.03809,22.51172,121.21191-26.5918-41.53613-52.42676-80.05566-69.791-101.62793-25.08105-31.16015-84.85254-84.85351-84.85254-84.85351A80.00043,80.00043,0,0,0,134.73047,247.86816s53.69336,59.77149,84.85351,84.85254c21.57227,17.36426,60.0918,43.19922,101.62793,69.791C273.03809,391.94434,227.53223,382.97656,200,380c-39.76855-4.29883-120,0-120,0a80,80,0,0,0,0,160s80.23145,4.29883,120,0c27.53223-2.97656,73.03809-11.94434,121.21191-22.51172-41.53613,26.5918-80.05566,52.42676-101.62793,69.791-31.16015,25.08105-84.85351,84.85254-84.85351,84.85254A80.00043,80.00043,0,0,0,247.86816,785.26953s59.77149-53.69336,84.85254-84.85351c17.36426-21.57227,43.19922-60.0918,69.791-101.62793C391.94434,646.96191,382.97656,692.46777,380,720c-4.29883,39.76855,0,120,0,120a80,80,0,0,0,160,0s4.29883-80.23145,0-120c-2.97656-27.53223-11.94434-73.03809-22.51172-121.21191,26.5918,41.53613,52.42676,80.05566,69.791,101.62793,25.08105,31.16015,84.85254,84.85351,84.85254,84.85351A80.00043,80.00043,0,0,0,785.26953,672.13184S731.57617,612.36035,700.416,587.2793c-21.57227-17.36426-60.0918-43.19922-101.62793-69.791C646.96191,528.05566,692.46777,537.02344,720,540c39.76855,4.29883,120,0,120,0a80,80,0,0,0,0-160Z" style="fill: #7f7f7f"/>
    </g>
  </g>
</svg>
