<svg xmlns="http://www.w3.org/2000/svg" width="320" height="600" viewBox="0 0 320 600">
  <title>Asset 169</title>
  <g id="Layer_2" data-name="Layer 2">
    <g id="Basic_Latin" data-name="Basic Latin">
      <path d="M320,70h-.00049A69.9782,69.9782,0,0,0,250.022,0L250,.00049V0H78V.00049A70.01561,70.01561,0,0,0,8.00049,70H8V170H108V127a26.88774,26.88774,0,0,1,27-27h62a26.87206,26.87206,0,0,1,26.92212,25.03027C223.96,143.47461,224,164.41162,224,170,224,251.94287,0,407.67139,0,550v50H320V490H131.55811C174.155,390.71924,319.96338,282.11475,320,190Z" style="fill: #7f7f7f"/>
    </g>
  </g>
</svg>
