<svg xmlns="http://www.w3.org/2000/svg" width="770" height="1400" viewBox="0 0 770 1400">
  <title>Asset 178</title>
  <g id="Layer_2" data-name="Layer 2">
    <g id="Basic_Latin" data-name="Basic Latin">
      <g>
        <path d="M320,70h-.001A69.97773,69.97773,0,0,0,250.02148,0L250,.00049V0H70V.00049A70.015,70.015,0,0,0,.001,70H0V170H100V127a26.88774,26.88774,0,0,1,27-27h66a26.88774,26.88774,0,0,1,27,27v96a26.88774,26.88774,0,0,1-27,27H120V350h73a26.88774,26.88774,0,0,1,27,27v96a26.88774,26.88774,0,0,1-27,27H127a26.88774,26.88774,0,0,1-27-27V430H0V530H.001A70.015,70.015,0,0,0,70,599.99951V600H250v-.00049l.02148.00049A69.97773,69.97773,0,0,0,319.999,530H320V371.42871h-.03711c.01074-.48437.03711-.96435.03711-1.45068a69.95022,69.95022,0,0,0-40-63.23487V293.25684A69.95022,69.95022,0,0,0,320,230.022c0-.48633-.02637-.96631-.03711-1.45068H320Z" style="fill: #7f7f7f"/>
        <polygon points="620 0 0 1400 150 1400 770 0 620 0" style="fill: #7f7f7f"/>
        <path d="M685,1280h20v-90H685V800H565L385,1205v75H585v120H685Zm-198.40918-90L585,962.10547V1190Z" style="fill: #7f7f7f"/>
      </g>
    </g>
  </g>
</svg>
