<svg xmlns="http://www.w3.org/2000/svg" width="710" height="1400" viewBox="0 0 710 1400">
  <title>Asset 154</title>
  <g id="Layer_2" data-name="Layer 2">
    <g id="Basic_Latin" data-name="Basic Latin">
      <path d="M550,0H160A160.04477,160.04477,0,0,0,0,159.98877L.00024,160H0V321.56982C0,534.80078,82.02856,565.73145,115.76611,700H0V900H114.03516L0,1400H710V1200H276.42859l69.64282-300H710V700H347.634C313.57666,525.394,220.8999,478.41406,220.8999,322.27344c0-7.77149-.08984-26.835-.21277-49.27344H221c0-35,27-63,62-63H417a62.738,62.738,0,0,1,63,63V400H710V160h-.00024L710,159.98877A159.98067,159.98067,0,0,0,550,0Z" style="fill: #7f7f7f"/>
    </g>
  </g>
</svg>
