<svg xmlns="http://www.w3.org/2000/svg" width="1960" height="1400" viewBox="0 0 1960 1400">
  <title>Asset 206</title>
  <g id="Layer_2" data-name="Layer 2">
    <g id="Basic_Latin" data-name="Basic Latin">
      <g>
        <polygon points="890 0 690 0 90 1400 290 1400 890 0" style="fill: #7f7f7f"/>
        <path d="M460,371V320C460,193.24707,357.02441,90,230,90,102.97656,90,0,193.24707,0,320v51C0,497.75293,102.97656,600,230,600S460,497.75293,460,371ZM301,356c0,52.57324-31.88525,95-71,95s-71-42.42676-71-95V334c0-52.57324,31.88525-94,71-94s71,41.42676,71,94Z" style="fill: #7f7f7f"/>
        <path d="M770,1310c127.02344,0,230-102.24707,230-229v-51c0-126.75293-102.97559-230-230-230-127.02344,0-230,103.24707-230,230v51C540,1207.75293,642.97656,1310,770,1310Zm-71-266c0-52.57324,31.88525-94,71-94s71,41.42676,71,94v22c0,52.57324-31.88525,95-71,95s-71-42.42676-71-95Z" style="fill: #7f7f7f"/>
        <path d="M1250,800c-127.02344,0-230,103.24707-230,230v51c0,126.75293,102.97656,229,230,229s230-102.24707,230-229v-51C1480,903.24707,1377.02441,800,1250,800Zm71,266c0,52.57324-31.88525,95-71,95s-71-42.42676-71-95v-22c0-52.57324,31.88525-94,71-94s71,41.42676,71,94Z" style="fill: #7f7f7f"/>
        <path d="M1960,1081v-51c0-126.75293-102.97559-230-230-230-127.02344,0-230,103.24707-230,230v51c0,126.75293,102.97656,229,230,229S1960,1207.75293,1960,1081Zm-301-15v-22c0-52.57324,31.88525-94,71-94s71,41.42676,71,94v22c0,52.57324-31.88525,95-71,95S1659,1118.57324,1659,1066Z" style="fill: #7f7f7f"/>
      </g>
    </g>
  </g>
</svg>
