<svg xmlns="http://www.w3.org/2000/svg" width="1762.64844" height="1599.38525" viewBox="0 0 1762.64844 1599.38525">
  <title>Asset 166</title>
  <g id="Layer_2" data-name="Layer 2">
    <g id="Basic_Latin" data-name="Basic Latin">
      <g>
        <polygon points="1292.648 371.499 1230.846 181.288 993.081 258.542 977.705 267.344 981.324 250 981.324 0 781.324 0 781.324 250 784.943 267.344 769.567 258.542 531.804 181.288 470 371.499 707.764 448.753 725.377 450.67 712.255 462.574 565.309 664.828 727.112 782.385 874.059 580.131 881.324 563.972 888.591 580.131 1035.537 782.385 1197.34 664.828 1050.394 462.574 1037.271 450.67 1054.885 448.753 1292.648 371.499" style="fill: #7f7f7f"/>
        <polygon points="580.394 1279.574 567.271 1267.67 584.885 1265.753 822.648 1188.499 760.846 998.288 523.081 1075.542 507.705 1084.344 511.324 1067 511.324 817 311.324 817 311.324 1067 314.943 1084.344 299.567 1075.542 61.804 998.288 0 1188.499 237.764 1265.753 255.377 1267.67 242.255 1279.574 95.309 1481.828 257.112 1599.385 404.059 1397.131 411.324 1380.972 418.591 1397.131 565.537 1599.385 727.34 1481.828 580.394 1279.574" style="fill: #7f7f7f"/>
        <polygon points="1463.081 1075.542 1447.705 1084.344 1451.324 1067 1451.324 817 1251.324 817 1251.324 1067 1254.943 1084.344 1239.567 1075.542 1001.804 998.288 940 1188.499 1177.764 1265.753 1195.377 1267.67 1182.255 1279.574 1035.309 1481.828 1197.112 1599.385 1344.059 1397.131 1351.324 1380.972 1358.591 1397.131 1505.537 1599.385 1667.34 1481.828 1520.394 1279.574 1507.271 1267.67 1524.885 1265.753 1762.648 1188.499 1700.846 998.288 1463.081 1075.542" style="fill: #7f7f7f"/>
      </g>
    </g>
  </g>
</svg>
