<svg xmlns="http://www.w3.org/2000/svg" width="1130" height="1280" viewBox="0 0 1130 1280">
  <title>Asset 164</title>
  <g id="Layer_2" data-name="Layer 2">
    <g id="Basic_Latin" data-name="Basic Latin">
      <g>
        <path d="M480,760H590.92578L665,960H825L733.85547,736.28125A159.89469,159.89469,0,0,0,810,600V480A160.00042,160.00042,0,0,0,650,320H320V960H480ZM650,480V600H480V480Z" style="fill: #7f7f7f"/>
        <path d="M0,400V880c0,225,175,400,400,400H730c225,0,400-175,400-400V390l-.11914-.02979C1124.76758,169.82129,951.64551,0,730,0H400C175,0,0,175,0,400ZM730,160c135,0,240,105,240,240V880c0,135-105,240-240,240H400c-135,0-240-105-240-240V400c0-135,105-240,240-240Z" style="fill: #7f7f7f"/>
      </g>
    </g>
  </g>
</svg>
