<?xml version="1.0" encoding="utf-8"?>
<!-- Generator: Adobe Illustrator 22.0.1, SVG Export Plug-In . SVG Version: 6.00 Build 0)  -->
<svg version="1.1" xmlns="http://www.w3.org/2000/svg" xmlns:xlink="http://www.w3.org/1999/xlink" x="0px" y="0px"
	 viewBox="0 0 1000 1000" style="enable-background:new 0 0 1000 1000;" xml:space="preserve">
<style type="text/css">
	.st0{fill:#086AFF;}
</style>
<g id="Guides">
</g>
<g id="Shapes_1_">
	<path class="st0" d="M410,90c0-44.2-35.8-80-80-80s-44.2,160,0,160S410,134.2,410,90z"/>
	<circle class="st0" cx="80" cy="90" r="80"/>
	<circle class="st0" cx="80" cy="720" r="80"/>
	<rect y="90" class="st0" width="145" height="630"/>
	<rect x="280" y="466.5" class="st0" width="130" height="253.5"/>
	<polygon class="st0" points="302.3,547 410,547 410,800 305,800 302,719 	"/>
	<rect x="280" y="90" class="st0" width="130" height="170"/>
	<rect x="80" y="10" class="st0" width="250" height="140"/>
	<rect x="80" y="660" class="st0" width="130" height="140"/>
	<rect x="210" y="400" class="st0" width="200" height="130"/>
	<path class="st0" d="M280,624c-1.9,19-17,34.1-36,36v4h40v-40H280z"/>
	<path class="st0" d="M154,660c-4.8-0.5-8.5-4.2-9-9h-1v10h10V660z"/>
	<path class="st0" d="M302,720c0-20.9,0-60,0-60s-57.3,0-80.6,0c-11.2,0-46.4,0-46.4,0v140c0,0,37.1,0,47,0
		C266.2,800,302,764.2,302,720z"/>
</g>
</svg>
