<?xml version="1.0" encoding="utf-8"?>
<!-- Generator: Adobe Illustrator 22.0.1, SVG Export Plug-In . SVG Version: 6.00 Build 0)  -->
<svg version="1.1" xmlns="http://www.w3.org/2000/svg" xmlns:xlink="http://www.w3.org/1999/xlink" x="0px" y="0px"
	 viewBox="0 0 1000 1000" style="enable-background:new 0 0 1000 1000;" xml:space="preserve">
<style type="text/css">
	.st0{fill:#086AFF;}
</style>
<g id="Guides">
</g>
<g id="Shapes">
	<rect x="322" y="10" class="st0" width="60" height="100"/>
	<path class="st0" d="M72,260.3C72,122,183.9,10,322,10c50.5,0,64.9,100,0,100c-45.5,0-120,34-120,120.3
		C202,305.2,72,310.9,72,260.3z"/>
	<path class="st0" d="M129.6,490H72V260.3l130-30v187.3C198,456.2,168.2,486,129.6,490z"/>
	<path class="st0" d="M72,392c-4,38.4-33.6,68-72,72v8h80v-80H72z"/>
	<rect x="322" y="890" class="st0" width="60" height="100"/>
	<path class="st0" d="M72,739.8C72,878,183.9,990,322,990c50.5,0,64.9-100,0-100c-45.5,0-120-34-120-120.3
		C202,694.8,72,689.1,72,739.8z"/>
	<path class="st0" d="M129.6,510H72v219.8l130,30V582.4C198,543.8,168.2,514,129.6,510z"/>
	<path class="st0" d="M72,608c-4-38.4-33.6-68-72-72v-8h80v80H72z"/>
	<rect y="470" class="st0" width="130" height="60"/>
</g>
</svg>
