<?xml version="1.0" encoding="utf-8"?>
<!-- Generator: Adobe Illustrator 22.0.1, SVG Export Plug-In . SVG Version: 6.00 Build 0)  -->
<svg version="1.1" xmlns="http://www.w3.org/2000/svg" xmlns:xlink="http://www.w3.org/1999/xlink" x="0px" y="0px"
	 viewBox="0 0 1000 1000" style="enable-background:new 0 0 1000 1000;" xml:space="preserve">
<style type="text/css">
	.st0{fill:#086AFF;}
</style>
<g id="Guides">
</g>
<g id="Shapes">
	<path class="st0" d="M415,148c0-44.2-35.8-80-80-80h-73V-32H152V68H80c-44.2,0-80,35.8-80,80c0,0.2,0,0.3,0,0.5h0V404
		c0,44.2,35.8,80,80,80h188c6.2,0.6,11.4,5.8,12,12v131.5c-0.6,6.2-5.8,11.4-12,12v0.5H152v-0.5c-6.2-0.6-11.4-5.8-12-12v-63H0v130
		h0c0,0.2,0,0.3,0,0.5c0,44.2,35.8,80,80,80h72v100h110V775h73c44.2,0,80-35.8,80-80c0-0.2,0-0.3,0-0.5h0V429c0-44.2-35.8-80-80-80
		c-0.3,0-0.7,0-1,0v0H147c-6.2-0.6-11.4-5.8-12-12V215.5c0.6-6.2,5.8-11.4,12-12V203h116v0.5c6.2,0.6,11.4,5.8,12,12v63h140v-130h0
		C415,148.3,415,148.2,415,148z"/>
</g>
</svg>
