<?xml version="1.0" encoding="utf-8"?>
<!-- Generator: Adobe Illustrator 22.0.1, SVG Export Plug-In . SVG Version: 6.00 Build 0)  -->
<svg version="1.1" xmlns="http://www.w3.org/2000/svg" xmlns:xlink="http://www.w3.org/1999/xlink" x="0px" y="0px"
	 viewBox="0 0 1000 1000" style="enable-background:new 0 0 1000 1000;" xml:space="preserve">
<style type="text/css">
	.st0{fill:#086AFF;}
</style>
<g id="Guides">
</g>
<g id="Shapes">
	<path class="st0" d="M537.4,735.3l-71-96.9c44.9-36,80.1-64.7,80.5-65.1l-75.8-93l-75.7,61.3L283,388.1c0,0,96.3-93.3,99.6-97.2
		c21.3-24,27.5-41.4,27.5-76.4c0,0,0-112.7,0-114.5c0-49.7-40.3-90-90-90c-2.2,0-26.8,0.3-40,0.3H170c-13.2,0-37.8-0.3-40-0.3
		c-49.7,0-90,40.3-90,90c0,1.8,0,124.7,0,124.7c0,0,0.1,0.1,0.1,0.1c1.1,24.5,9.5,47.1,23.1,65.6c0,0,0,0,0,0l61,84.1l-86.6,83.6
		l0,0.1C14.5,480.1,0,511.1,0,545.5c0,0,0,115.7,0,140.7C0,749,51,800,113.8,800c1.6,0,3-0.1,4.3-0.3c0.6,0.1,1.3,0.2,1.9,0.2v0.1
		h114c21.1,0,36.4-10.5,49.8-19.8c8.8-6.1,67.7-50.7,88.6-67.1l63.5,86.6H549v-29C549,758,544.9,745.6,537.4,735.3z M290,147v73
		l-75.4,74.8L160,220.4V147c1.5-14.4,12.6-25.5,27-27h76C277.4,121.5,288.5,132.6,290,147z M218,680h-67c-19.2-2-34-16.8-36-36v-89
		l81-83l105,144C301,616,232.9,669.5,218,680z"/>
</g>
</svg>
