<?xml version="1.0" encoding="utf-8"?>
<!-- Generator: Adobe Illustrator 22.0.1, SVG Export Plug-In . SVG Version: 6.00 Build 0)  -->
<svg version="1.1" xmlns="http://www.w3.org/2000/svg" xmlns:xlink="http://www.w3.org/1999/xlink" x="0px" y="0px"
	 viewBox="0 0 1000 1000" style="enable-background:new 0 0 1000 1000;" xml:space="preserve">
<style type="text/css">
	.st0{fill:#086AFF;}
</style>
<g id="Guides">
</g>
<g id="Shapes">
	<path class="st0" d="M325,10H90C40.3,10,0,50.3,0,100v610c0,49.7,40.3,90,90,90h235c49.7,0,90-40.3,90-90V100
		C415,50.3,374.7,10,325,10z M145,619V191c2-19.2,16.8-34,36-36h53c19.2,2,34,16.8,36,36v428c-2,19.2-16.8,34-36,36h-53
		C161.8,653,147,638.2,145,619z"/>
</g>
</svg>
