<?xml version="1.0" encoding="utf-8"?>
<!-- Generator: Adobe Illustrator 22.0.1, SVG Export Plug-In . SVG Version: 6.00 Build 0)  -->
<svg version="1.1" xmlns="http://www.w3.org/2000/svg" xmlns:xlink="http://www.w3.org/1999/xlink" x="0px" y="0px"
	 viewBox="0 0 1000 1000" style="enable-background:new 0 0 1000 1000;" xml:space="preserve">
<style type="text/css">
	.st0{fill:#086AFF;}
</style>
<g id="Guides">
	<path class="st0" d="M10,100v150.1h140V167c1.5-14.4,12.6-25.5,27-27h82c14.4,1.5,25.5,12.6,27,27c0,20.7,0,44.7,0,53.1
		C286,328,0.5,552.6,0.5,740l0,60H80h58h277V665H168c60.2-135.9,247-297.9,247-417c0-8.8,0-148,0-148c0-49.7-40.3-90-90-90H100
		C50.3,10,10,50.3,10,100z"/>
</g>
<g id="Shapes">
</g>
</svg>
