<?xml version="1.0" encoding="utf-8"?>
<!-- Generator: Adobe Illustrator 22.0.1, SVG Export Plug-In . SVG Version: 6.00 Build 0)  -->
<svg version="1.1" xmlns="http://www.w3.org/2000/svg" xmlns:xlink="http://www.w3.org/1999/xlink" x="0px" y="0px"
	 viewBox="0 0 1000 1000" style="enable-background:new 0 0 1000 1000;" xml:space="preserve">
<style type="text/css">
	.st0{fill:#086AFF;}
</style>
<g id="Guides">
</g>
<g id="Shapes">
	<path class="st0" d="M415,100c0-49.7-40.3-90-90-90H90C40.3,10,0,50.3,0,100v130h140v-49c2-19.2,16.8-34,36-36h63
		c19.2,2,34,16.8,36,36v72v50c-2,19.2-16.8,34-36,36h-79v130h79c19.2,2,34,16.8,36,36v48v66c-2,19.2-16.8,34-36,36h-63
		c-19.2-2-34-16.8-36-36v-49H0v140c0,49.7,40.3,90,90,90h235c49.7,0,90-40.3,90-90V485c0-35.6-20.7-66.4-50.7-81
		c30-14.6,50.7-45.4,50.7-81c0-0.7,0-1.3,0-2h0V100z"/>
</g>
</svg>
