<?xml version="1.0" encoding="utf-8"?>
<!-- Generator: Adobe Illustrator 22.0.1, SVG Export Plug-In . SVG Version: 6.00 Build 0)  -->
<svg version="1.1" xmlns="http://www.w3.org/2000/svg" xmlns:xlink="http://www.w3.org/1999/xlink" x="0px" y="0px"
	 viewBox="0 0 1000 1000" style="enable-background:new 0 0 1000 1000;" xml:space="preserve">
<style type="text/css">
	.st0{fill:#086AFF;}
</style>
<g id="Guides">
</g>
<g id="Shapes">
	<path class="st0" d="M415,155V10H0v80v65v208c0,49.7,40.3,90,90,90h158c14.4,1.5,25.5,12.6,27,27v163.1c-1.5,14.4-12.6,25.5-27,27
		h-81c-14.4-1.5-25.5-12.6-27-27V560H0v150h0c0,0,0,0.1,0,0.1c0,49.7,40.3,90,90,90h236v0c49.2-0.5,89-40.6,89-90c0,0,0-0.1,0-0.1h0
		V410c0-49.7-40.3-90-90-90H172c-14.4-1.5-25.5-12.6-27-27V155H415z"/>
</g>
</svg>
