<?xml version="1.0" encoding="utf-8"?>
<!-- Generator: Adobe Illustrator 22.0.1, SVG Export Plug-In . SVG Version: 6.00 Build 0)  -->
<svg version="1.1" xmlns="http://www.w3.org/2000/svg" xmlns:xlink="http://www.w3.org/1999/xlink" x="0px" y="0px"
	 viewBox="0 0 1000 1000" style="enable-background:new 0 0 1000 1000;" xml:space="preserve">
<style type="text/css">
	.st0{fill:#086AFF;}
</style>
<g id="Guides">
</g>
<g id="Shapes">
	<path class="st0" d="M415,230V100c0-49.7-40.3-90-90-90H90C40.3,10,0,50.3,0,100v610c0,49.7,40.3,90,90,90h235
		c49.7,0,90-40.3,90-90V429c0-48-37.6-87.3-85-89.9V339H145V191c2-19.2,16.8-34,36-36h58c19.2,2,34,16.8,36,36v39H415z M239,469
		c19.2,2,34,16.8,36,36v119c-2.8,27.3-16,33.9-36,36h-58c-19.2-2-34-16.8-36-36V469H239z"/>
</g>
</svg>
