<?xml version="1.0" encoding="utf-8"?>
<!-- Generator: Adobe Illustrator 22.0.1, SVG Export Plug-In . SVG Version: 6.00 Build 0)  -->
<svg version="1.1" xmlns="http://www.w3.org/2000/svg" xmlns:xlink="http://www.w3.org/1999/xlink" x="0px" y="0px"
	 viewBox="0 0 1000 1000" style="enable-background:new 0 0 1000 1000;" xml:space="preserve">
<style type="text/css">
	.st0{fill:#086AFF;}
</style>
<g id="Guides">
</g>
<g id="Shapes">
	<path class="st0" d="M415,321V100c0-49.7-40.3-90-90-90H90C40.3,10,0,50.3,0,100v221c0,36.5,21.7,67.9,52.9,82
		C21.7,417.1,0,448.5,0,485v225c0,49.7,40.3,90,90,90h235c49.7,0,90-40.3,90-90V485c0-36.5-21.7-67.9-52.9-82
		C393.3,388.9,415,357.5,415,321z M275,186v67v50c-2,19.2-16.8,34-36,36h-63c-19.2-2-34-16.8-36-36v-50v-67c2-19.2,16.8-34,36-36h63
		C258.2,152,273,166.8,275,186z M140,624v-71v-48c2-19.2,16.8-34,36-36h63c19.2,2,34,16.8,36,36v48v71c-2,19.2-16.8,34-36,36h-63
		C156.8,658,142,643.2,140,624z"/>
</g>
</svg>
