<?xml version="1.0" encoding="utf-8"?>
<!-- Generator: Adobe Illustrator 22.0.1, SVG Export Plug-In . SVG Version: 6.00 Build 0)  -->
<svg version="1.1" xmlns="http://www.w3.org/2000/svg" xmlns:xlink="http://www.w3.org/1999/xlink" x="0px" y="0px"
	 viewBox="0 0 1000 1000" style="enable-background:new 0 0 1000 1000;" xml:space="preserve">
<style type="text/css">
	.st0{fill:#086AFF;}
</style>
<g id="Guides">
</g>
<g id="Shapes">
	<path class="st0" d="M325,10H90C40.3,10,0,50.3,0,100v281c0,49.7,40.3,90,90,90l0,0h149c19.2-2,34-16.8,36-36l0,189
		c-2,19.2-16.8,34-36,36h-73c-19.2-2-34-16.8-36-36v-44H0v130c0,49.7,40.3,90,90,90h235c49.7,0,90-40.3,90-90V100
		C415,50.3,374.7,10,325,10z M239,341h-63c-19.2-2-34-16.8-36-36V186c2-19.2,16.8-34,36-36h63c19.2,2,34,16.8,36,36v119
		C273,324.2,258.2,339,239,341z"/>
</g>
</svg>
