<?xml version="1.0" encoding="utf-8"?>
<!-- Generator: Adobe Illustrator 22.0.1, SVG Export Plug-In . SVG Version: 6.00 Build 0)  -->
<svg version="1.1" xmlns="http://www.w3.org/2000/svg" xmlns:xlink="http://www.w3.org/1999/xlink" x="0px" y="0px"
	 viewBox="0 0 1000 1000" style="enable-background:new 0 0 1000 1000;" xml:space="preserve">
<style type="text/css">
	.st0{fill:#086AFF;}
</style>
<g id="Guides">
</g>
<g id="Shapes">
	<path class="st0" d="M485,80c-0.3,0-0.5,0-0.8,0v0H250C111.9,80,0,191.8,0,330v306c0,138.2,111.9,250,250,250h445V786H250
		c-2.3,0-4.7-0.2-7.3-0.5c-70.1-5.5-127-57.6-140-125.3c-1.8-7.8-2.8-15.9-2.8-24.2V330c0-8.3,1-16.4,2.8-24.2
		c12.9-67.7,69.9-119.8,140-125.3c2.6-0.3,5-0.5,7.3-0.5h234.3v0c0.3,0,0.5,0,0.8,0c2.3,0,4.7,0.2,7.3,0.5
		c70.1,5.5,127,57.6,140,125.3c1.8,7.8,2.8,15.9,2.8,24.2v219c-2,19.2-16.8,34-36,36h-18c-19.2-2-34-16.8-36-36V280H445v46.1
		c-2.6-24.6-21.4-43.6-46-46.1h-12.5h-16.2H270c-49.7,0-90,40.3-90,90v225c0,49.7,40.3,90,90,90h103.8h21.8h12
		c19.9-2.4,35.4-20.2,37.4-43.2v7.2c2,19.2,16.8,34,36,36h24.5H645c49.7,0,90-40.3,90-90V330C735,191.8,623.1,80,485,80z M395.6,585
		h-12.4H316c-19.2-2-34-16.8-36-36V416c2-19.2,16.8-34,36-36h36.5h34H409c19.2,2,34,16.8,36,36v133c-2,19.2-16.8,34-36,36H395.6z"/>
</g>
</svg>
