<?xml version="1.0" encoding="utf-8"?>
<!-- Generator: Adobe Illustrator 22.0.1, SVG Export Plug-In . SVG Version: 6.00 Build 0)  -->
<svg version="1.1" id="Layer_1" xmlns="http://www.w3.org/2000/svg" xmlns:xlink="http://www.w3.org/1999/xlink" x="0px" y="0px"
	 viewBox="0 0 1000 1000" style="enable-background:new 0 0 1000 1000;" xml:space="preserve">
<style type="text/css">
	.st0{fill:#086AFF;}
</style>
<g id="Guides">
</g>
<path class="st0" d="M410,260V90c0-44.2-35.8-80-80-80H80C35.8,10,0,45.8,0,90v630c0,44.2,35.8,80,80,80h95h35c5.1,0,9.4,0,12,0
	c44.2,0,80-35.8,80-80h0l3,80h105v-80V547v-17v-63.5V400H210v130h70v94c-1.9,19-17,34.1-36,36c-8.7,0-16.7,0-22.6,0
	c-2.7,0-6.8,0-11.4,0h-35h-21c-4.8-0.5-8.5-4.2-9-9V150h135v110H410z"/>
</svg>
