<?xml version="1.0" encoding="utf-8"?>
<!-- Generator: Adobe Illustrator 22.0.1, SVG Export Plug-In . SVG Version: 6.00 Build 0)  -->
<svg version="1.1" xmlns="http://www.w3.org/2000/svg" xmlns:xlink="http://www.w3.org/1999/xlink" x="0px" y="0px"
	 viewBox="0 0 1000 1000" style="enable-background:new 0 0 1000 1000;" xml:space="preserve">
<style type="text/css">
	.st0{fill:#086AFF;}
</style>
<g id="Guides">
</g>
<g id="Shapes">
	<path class="st0" d="M429.5,791.1c-0.4-0.3-0.9-0.4-1.4-0.7c-25.6-13.7-43.1-40.8-43.1-71.9h0V510c0-25.3-11.7-47.8-30.1-62.5
		c18.3-14.7,30.1-37.2,30.1-62.5c0,0,0,0,0,0h0V90c0-44.2-35.8-80-80-80H0v70v75.2V385v125v290h140V510h105v37.5V719h0
		c0.3,44.8,36.6,81,81.5,81c0.3,0,0.6,0,0.9,0v0c0,0,99.3,0,100.1,0c2.3-0.5,4-2.5,4-4.9C431.5,793.4,430.7,792,429.5,791.1z
		 M140,385V155.2h105v192.3V385H140z"/>
</g>
</svg>
