<?xml version="1.0" encoding="utf-8"?>
<!-- Generator: Adobe Illustrator 22.0.1, SVG Export Plug-In . SVG Version: 6.00 Build 0)  -->
<svg version="1.1" xmlns="http://www.w3.org/2000/svg" xmlns:xlink="http://www.w3.org/1999/xlink" x="0px" y="0px"
	 viewBox="0 0 1000 1000" style="enable-background:new 0 0 1000 1000;" xml:space="preserve">
<style type="text/css">
	.st0{fill:#086AFF;}
</style>
<g id="Guides">
</g>
<g id="Shapes">
	<path class="st0" d="M415,250.1V90c0-44.2-35.8-80-80-80H80C38.5,10,4.4,41.6,0.4,82H0v312c0,44.2,35.8,80,80,80h187
		c6.2,0.6,11.4,5.8,12,12v167c-0.6,6.2-5.8,11.4-12,12H152c-6.2-0.6-11.4-5.8-12-12V540H0v180c0,44.2,35.8,80,80,80h254
		c44.2,0,80-35.8,80-80V419c0-44.2-35.8-80-80-80H147c-6.2-0.6-11.4-5.8-12-12V157c0.6-6.2,5.8-11.4,12-12h116
		c6.2,0.6,11.4,5.8,12,12v93.1H415z"/>
</g>
</svg>
