<?xml version="1.0" encoding="utf-8"?>
<!-- Generator: Adobe Illustrator 22.0.1, SVG Export Plug-In . SVG Version: 6.00 Build 0)  -->
<svg version="1.1" id="Layer_1" xmlns="http://www.w3.org/2000/svg" xmlns:xlink="http://www.w3.org/1999/xlink" x="0px" y="0px"
	 viewBox="0 0 1000 1000" style="enable-background:new 0 0 1000 1000;" xml:space="preserve">
<style type="text/css">
	.st0{fill:#086AFF;}
</style>
<g id="Guides">
</g>
<path class="st0" d="M202,417.6V230.3C202,144,276.5,110,322,110h60V10h-60C183.9,10,72,122,72,260.3V392c-4,38.4-33.6,68-72,72v6v2
	v56v2v6c38.4,4,68,33.6,72,72v121.8l1.8,0.4c-1.1,2.9-1.8,6.1-1.8,9.6C72,878,183.9,990,322,990h60V890h-60
	c-45.5,0-120-34-120-120.3c0-3.5-0.3-6.9-0.8-10.1l0.8,0.2V582.4c-4-38.5-33.6-68.2-72-72.3v-20.1C168.4,485.8,198,456.1,202,417.6z
	"/>
</svg>
