<?xml version="1.0" encoding="utf-8"?>
<!-- Generator: Adobe Illustrator 22.0.1, SVG Export Plug-In . SVG Version: 6.00 Build 0)  -->
<svg version="1.1" xmlns="http://www.w3.org/2000/svg" xmlns:xlink="http://www.w3.org/1999/xlink" x="0px" y="0px"
	 viewBox="0 0 1000 1000" style="enable-background:new 0 0 1000 1000;" xml:space="preserve">
<style type="text/css">
	.st0{fill:#086AFF;}
</style>
<g id="Guides">
</g>
<g id="Shapes">
	<path class="st0" d="M310,392V260.3C310,122,198.1,10,60,10H0v100h60c45.5,0,120,34,120,120.3v187.3c4,38.5,33.6,68.2,72,72.4v20.1
		c-38.4,4.2-68,33.9-72,72.4v177.3l0.9-0.2c-0.6,3.2-0.9,6.6-0.9,10.2C180,856,105.5,890,60,890H0v100h60c138.1,0,250-112,250-250.3
		c0-3.5-0.6-6.7-1.8-9.6l1.8-0.4V608c4-38.4,33.6-68,72-72v-6v-2v-56v-2v-6C343.6,460,314,430.4,310,392z"/>
</g>
</svg>
