<?xml version="1.0" encoding="utf-8"?>
<!-- Generator: Adobe Illustrator 22.0.1, SVG Export Plug-In . SVG Version: 6.00 Build 0)  -->
<svg version="1.1" xmlns="http://www.w3.org/2000/svg" xmlns:xlink="http://www.w3.org/1999/xlink" x="0px" y="0px"
	 viewBox="0 0 1000 1000" style="enable-background:new 0 0 1000 1000;" xml:space="preserve">
<style type="text/css">
	.st0{fill:#086AFF;}
</style>
<g id="Guides">
</g>
<g id="Shapes">
	<path class="st0" d="M422,394.7c0,37.5-30.5,68-68,68c-22.5,0-42.5-11-54.8-27.8c-0.2-0.3-0.5-0.6-0.7-0.9
		c-30-41.2-78.6-67.9-133.4-67.9C83.2,366,15.3,425.5,2.3,503.7L97,531c0-37.5,30.5-68,68-68c22.5,0,42.5,11,54.9,27.9
		c0.2,0.3,0.5,0.6,0.7,0.9c30,41.1,78.6,67.9,133.4,67.9c81.8,0,149.7-59.5,162.7-137.7L422,394.7z"/>
</g>
</svg>
