<svg xmlns="http://www.w3.org/2000/svg" width="710" height="1400" viewBox="0 0 710 1400">
  <title>Asset 179</title>
  <g id="Layer_2" data-name="Layer 2">
    <g id="Basic_Latin" data-name="Basic Latin">
      <g>
        <path d="M710,1000H480v127a62.738,62.738,0,0,1-63,63H283c-35,0-62-28-62-63h-.42187c.1748-36.11035.32226-69.3457.32226-79.27344C220.90039,856.43994,510,749,510,450V360H285V460C285,720.48145,0,780,0,1048.42969V1240H0v.01172A160.04482,160.04482,0,0,0,160,1400H550a159.981,159.981,0,0,0,160-159.98828V1240h0Z" style="fill: #7f7f7f"/>
        <rect x="280" width="230" height="230" style="fill: #7f7f7f"/>
      </g>
    </g>
  </g>
</svg>
