<svg xmlns="http://www.w3.org/2000/svg" width="1060" height="1400" viewBox="0 0 1060 1400">
  <title>Asset 122</title>
  <g id="Layer_2" data-name="Layer 2">
    <g id="Basic_Latin" data-name="Basic Latin">
      <g>
        <polygon points="320 1400 920 0 720 0 120 1400 320 1400" style="fill: #7f7f7f"/>
        <path d="M230,600c127.02344,0,230-102.24683,230-229V320C460,193.24677,357.02441,90,230,90,102.97632,90,0,193.24677,0,320v51C0,497.75317,102.97632,600,230,600ZM159,334c0-52.57324,31.88525-94,71-94s71,41.42676,71,94v22c0,52.57318-31.88525,95-71,95s-71-42.42682-71-95Z" style="fill: #7f7f7f"/>
        <path d="M600,1030v51c0,126.75317,102.97656,229,230,229s230-102.24683,230-229v-51c0-126.75317-102.97559-230-230-230C702.97656,800,600,903.24683,600,1030Zm301,14v22c0,52.57324-31.88525,95-71,95s-71-42.42676-71-95v-22c0-52.57324,31.88525-94,71-94S901,991.42676,901,1044Z" style="fill: #7f7f7f"/>
      </g>
    </g>
  </g>
</svg>
