<svg xmlns="http://www.w3.org/2000/svg" width="969.99902" height="1400" viewBox="0 0 969.99902 1400">
  <title>Asset 124</title>
  <g id="Layer_2" data-name="Layer 2">
    <g id="Basic_Latin" data-name="Basic Latin">
      <path d="M150,1400H411.39355c55.60645,0,97-35.08252,97-35.08252l146.56739-141.94043L783,1400H969.999v-35c0-46-20.43115-76.84241-20.43115-76.84241L800,1083,944,944,806,800,682,919,499.99854,670l176.001-172S720,456,720,380V150A150,150,0,0,0,570,0H219.71826l-.00342.0036A149.99786,149.99786,0,0,0,70,150V360c0,67,41.71973,116.95154,41.71973,116.95154L237,648,66,814S0,867,0,970v280A149.99993,149.99993,0,0,0,150,1400ZM520,211V372L381,506,280,367V211a20.5061,20.5061,0,0,1,21-21H499A20.5061,20.5061,0,0,1,520,211ZM200,960,355,809l181,251c.09961-.00012-131,127-131,127H221a20.5061,20.5061,0,0,1-21-21Z" style="fill: #7f7f7f"/>
    </g>
  </g>
</svg>
