<svg xmlns="http://www.w3.org/2000/svg" width="1480" height="1400" viewBox="0 0 1480 1400">
  <title>Asset 205</title>
  <g id="Layer_2" data-name="Layer 2">
    <g id="Basic_Latin" data-name="Basic Latin">
      <g>
        <polygon points="890 0 690 0 90 1400 290 1400 890 0" style="fill: #7f7f7f"/>
        <path d="M0,320v51C0,497.75293,102.97632,600,230,600S460,497.75293,460,371V320C460,193.24707,357.02417,90,230,90,102.97632,90,0,193.24707,0,320Zm301,14v22c0,52.57324-31.88525,95-71,95s-71-42.42676-71-95V334c0-52.57324,31.88525-94,71-94S301,281.42676,301,334Z" style="fill: #7f7f7f"/>
        <path d="M540,1030v51c0,126.75293,102.97632,229,230,229,127.02344,0,230-102.24707,230-229v-51c0-126.75293-102.97559-230-230-230C642.97632,800,540,903.24707,540,1030Zm301,14v22c0,52.57324-31.88525,95-71,95s-71-42.42676-71-95v-22c0-52.57324,31.88525-94,71-94S841,991.42676,841,1044Z" style="fill: #7f7f7f"/>
        <path d="M1480,1081v-51c0-126.75293-102.97559-230-230-230-127.02344,0-230,103.24707-230,230v51c0,126.75293,102.97656,229,230,229S1480,1207.75293,1480,1081Zm-301-15v-22c0-52.57324,31.88525-94,71-94s71,41.42676,71,94v22c0,52.57324-31.88525,95-71,95S1179,1118.57324,1179,1066Z" style="fill: #7f7f7f"/>
      </g>
    </g>
  </g>
</svg>
