<svg xmlns="http://www.w3.org/2000/svg" width="320" height="600" viewBox="0 0 320 600">
  <title>Asset 182</title>
  <g id="Layer_2" data-name="Layer 2">
    <g id="Basic_Latin" data-name="Basic Latin">
      <path d="M70,0V.00049A70.01561,70.01561,0,0,0,.00049,70H0V170H100V127a26.88774,26.88774,0,0,1,27-27h66a26.88774,26.88774,0,0,1,27,27v96a26.88774,26.88774,0,0,1-27,27H120V350h73a26.88774,26.88774,0,0,1,27,27v96a26.88774,26.88774,0,0,1-27,27H127a26.88774,26.88774,0,0,1-27-27V430H0V530H.00049A70.01561,70.01561,0,0,0,70,599.99951V600H250v-.00049l.022.00049a69.9782,69.9782,0,0,0,69.97754-70H320V371.42871h-.03662c.00976-.48437.03662-.96435.03662-1.45068a69.95022,69.95022,0,0,0-40-63.23487V293.25684A69.95022,69.95022,0,0,0,320,230.022c0-.48633-.02686-.96631-.03662-1.45068H320V70h-.00049A69.9782,69.9782,0,0,0,250.022,0L250,.00049V0Z" style="fill: #7f7f7f"/>
    </g>
  </g>
</svg>
