<svg xmlns="http://www.w3.org/2000/svg" width="800" height="1400" viewBox="0 0 800 1400">
  <title>Asset 226</title>
  <g id="Layer_2" data-name="Layer 2">
    <g id="Basic_Latin" data-name="Basic Latin">
      <g>
        <polygon points="0 1400 200 1400 800 0 600 0 0 1400" style="fill: #7f7f7f"/>
        <path d="M665,1000c-74.55762,0-135,60.7334-135,135.294v30C530,1239.85449,590.44238,1300,665,1300s135-60.14551,135-134.706v-30C800,1060.7334,739.55762,1000,665,1000Z" style="fill: #7f7f7f"/>
        <path d="M0,235.294v30C0,339.85449,60.44238,400,135,400s135-60.14551,135-134.706v-30C270,160.7334,209.55762,100,135,100S0,160.7334,0,235.294Z" style="fill: #7f7f7f"/>
      </g>
    </g>
  </g>
</svg>
